<svg xmlns="http://www.w3.org/2000/svg" xmlns:xlink="http://www.w3.org/1999/xlink" width="500" zoomAndPan="magnify" viewBox="0 0 375 374.999991" height="500" preserveAspectRatio="xMidYMid meet" version="1.0"><defs><g/></defs><g fill="#545454" fill-opacity="1"><g transform="translate(102.143962, 191.99776)"><g><path d="M 3.328125 -9.03125 C 2.140625 -9.03125 1.285156 -8.253906 0.765625 -6.703125 C 0.753906 -6.671875 0.722656 -6.65625 0.671875 -6.65625 C 0.617188 -6.664062 0.59375 -6.6875 0.59375 -6.71875 C 0.632812 -7.113281 0.679688 -7.628906 0.734375 -8.265625 C 0.785156 -8.898438 0.8125 -9.378906 0.8125 -9.703125 C 0.8125 -9.753906 0.835938 -9.78125 0.890625 -9.78125 C 0.941406 -9.78125 0.96875 -9.753906 0.96875 -9.703125 C 0.96875 -9.484375 1.253906 -9.375 1.828125 -9.375 C 2.691406 -9.34375 3.695312 -9.328125 4.84375 -9.328125 C 5.4375 -9.328125 6.0625 -9.335938 6.71875 -9.359375 L 7.734375 -9.375 C 8.117188 -9.375 8.394531 -9.398438 8.5625 -9.453125 C 8.738281 -9.503906 8.851562 -9.601562 8.90625 -9.75 C 8.914062 -9.789062 8.945312 -9.8125 9 -9.8125 C 9.0625 -9.8125 9.09375 -9.789062 9.09375 -9.75 C 9.0625 -9.445312 9.023438 -8.960938 8.984375 -8.296875 C 8.953125 -7.640625 8.9375 -7.113281 8.9375 -6.71875 C 8.9375 -6.6875 8.910156 -6.671875 8.859375 -6.671875 C 8.816406 -6.671875 8.789062 -6.6875 8.78125 -6.71875 C 8.625 -7.488281 8.335938 -8.066406 7.921875 -8.453125 C 7.515625 -8.835938 7.015625 -9.03125 6.421875 -9.03125 C 6.128906 -9.03125 5.9375 -8.96875 5.84375 -8.84375 C 5.75 -8.71875 5.703125 -8.476562 5.703125 -8.125 L 5.703125 -1.21875 C 5.703125 -0.90625 5.726562 -0.675781 5.78125 -0.53125 C 5.84375 -0.394531 5.957031 -0.300781 6.125 -0.25 C 6.300781 -0.207031 6.570312 -0.1875 6.9375 -0.1875 C 6.96875 -0.1875 6.984375 -0.15625 6.984375 -0.09375 C 6.984375 -0.03125 6.96875 0 6.9375 0 C 6.582031 0 6.300781 -0.00390625 6.09375 -0.015625 L 4.84375 -0.03125 L 3.625 -0.015625 C 3.414062 -0.00390625 3.128906 0 2.765625 0 C 2.734375 0 2.71875 -0.03125 2.71875 -0.09375 C 2.71875 -0.15625 2.734375 -0.1875 2.765625 -0.1875 C 3.117188 -0.1875 3.382812 -0.207031 3.5625 -0.25 C 3.738281 -0.300781 3.859375 -0.398438 3.921875 -0.546875 C 3.984375 -0.691406 4.015625 -0.914062 4.015625 -1.21875 L 4.015625 -8.15625 C 4.015625 -8.5 3.96875 -8.726562 3.875 -8.84375 C 3.789062 -8.96875 3.609375 -9.03125 3.328125 -9.03125 Z M 3.328125 -9.03125 "/></g></g></g><g fill="#545454" fill-opacity="1"><g transform="translate(116.183939, 191.99776)"><g><path d="M 10.984375 -0.1875 C 11.015625 -0.1875 11.03125 -0.15625 11.03125 -0.09375 C 11.03125 -0.03125 11.015625 0 10.984375 0 C 10.628906 0 10.347656 -0.00390625 10.140625 -0.015625 L 8.984375 -0.03125 L 7.640625 -0.015625 C 7.453125 -0.00390625 7.207031 0 6.90625 0 C 6.875 0 6.859375 -0.03125 6.859375 -0.09375 C 6.859375 -0.15625 6.875 -0.1875 6.90625 -0.1875 C 7.269531 -0.1875 7.535156 -0.207031 7.703125 -0.25 C 7.878906 -0.300781 7.992188 -0.394531 8.046875 -0.53125 C 8.109375 -0.675781 8.140625 -0.90625 8.140625 -1.21875 L 8.140625 -4.671875 L 3.296875 -4.671875 L 3.296875 -1.21875 C 3.296875 -0.914062 3.328125 -0.691406 3.390625 -0.546875 C 3.453125 -0.398438 3.566406 -0.300781 3.734375 -0.25 C 3.898438 -0.207031 4.171875 -0.1875 4.546875 -0.1875 C 4.566406 -0.1875 4.578125 -0.15625 4.578125 -0.09375 C 4.578125 -0.03125 4.566406 0 4.546875 0 C 4.191406 0 3.910156 -0.00390625 3.703125 -0.015625 L 2.40625 -0.03125 L 1.28125 -0.015625 C 1.070312 -0.00390625 0.796875 0 0.453125 0 C 0.429688 0 0.421875 -0.03125 0.421875 -0.09375 C 0.421875 -0.15625 0.429688 -0.1875 0.453125 -0.1875 C 0.796875 -0.1875 1.046875 -0.207031 1.203125 -0.25 C 1.367188 -0.300781 1.484375 -0.398438 1.546875 -0.546875 C 1.609375 -0.691406 1.640625 -0.914062 1.640625 -1.21875 L 1.640625 -8.15625 C 1.640625 -8.457031 1.609375 -8.675781 1.546875 -8.8125 C 1.484375 -8.957031 1.375 -9.054688 1.21875 -9.109375 C 1.0625 -9.160156 0.816406 -9.1875 0.484375 -9.1875 C 0.453125 -9.1875 0.4375 -9.21875 0.4375 -9.28125 C 0.4375 -9.34375 0.453125 -9.375 0.484375 -9.375 L 1.296875 -9.359375 C 1.753906 -9.335938 2.125 -9.328125 2.40625 -9.328125 C 2.78125 -9.328125 3.21875 -9.335938 3.71875 -9.359375 L 4.546875 -9.375 C 4.566406 -9.375 4.578125 -9.34375 4.578125 -9.28125 C 4.578125 -9.21875 4.566406 -9.1875 4.546875 -9.1875 C 4.179688 -9.1875 3.914062 -9.15625 3.75 -9.09375 C 3.582031 -9.039062 3.460938 -8.941406 3.390625 -8.796875 C 3.328125 -8.648438 3.296875 -8.425781 3.296875 -8.125 L 3.296875 -5.078125 L 8.140625 -5.078125 L 8.140625 -8.125 C 8.140625 -8.425781 8.109375 -8.648438 8.046875 -8.796875 C 7.992188 -8.941406 7.878906 -9.039062 7.703125 -9.09375 C 7.535156 -9.15625 7.269531 -9.1875 6.90625 -9.1875 C 6.875 -9.1875 6.859375 -9.21875 6.859375 -9.28125 C 6.859375 -9.34375 6.875 -9.375 6.90625 -9.375 L 7.640625 -9.359375 C 8.140625 -9.335938 8.585938 -9.328125 8.984375 -9.328125 C 9.253906 -9.328125 9.640625 -9.335938 10.140625 -9.359375 L 10.984375 -9.375 C 11.015625 -9.375 11.03125 -9.34375 11.03125 -9.28125 C 11.03125 -9.21875 11.015625 -9.1875 10.984375 -9.1875 C 10.640625 -9.1875 10.382812 -9.160156 10.21875 -9.109375 C 10.050781 -9.054688 9.941406 -8.957031 9.890625 -8.8125 C 9.835938 -8.675781 9.8125 -8.457031 9.8125 -8.15625 L 9.8125 -1.21875 C 9.8125 -0.914062 9.835938 -0.691406 9.890625 -0.546875 C 9.941406 -0.398438 10.046875 -0.300781 10.203125 -0.25 C 10.367188 -0.207031 10.628906 -0.1875 10.984375 -0.1875 Z M 10.984375 -0.1875 "/></g></g></g><g fill="#545454" fill-opacity="1"><g transform="translate(132.038915, 191.99776)"><g><path d="M 7.4375 -2.390625 C 7.4375 -2.410156 7.457031 -2.421875 7.5 -2.421875 C 7.53125 -2.421875 7.554688 -2.410156 7.578125 -2.390625 C 7.609375 -2.378906 7.625 -2.367188 7.625 -2.359375 C 7.519531 -1.578125 7.46875 -0.863281 7.46875 -0.21875 C 7.46875 -0.144531 7.453125 -0.0859375 7.421875 -0.046875 C 7.390625 -0.015625 7.332031 0 7.25 0 L 0.609375 0 C 0.578125 0 0.5625 -0.03125 0.5625 -0.09375 C 0.5625 -0.15625 0.578125 -0.1875 0.609375 -0.1875 C 0.929688 -0.1875 1.164062 -0.207031 1.3125 -0.25 C 1.457031 -0.300781 1.554688 -0.398438 1.609375 -0.546875 C 1.660156 -0.691406 1.6875 -0.914062 1.6875 -1.21875 L 1.6875 -8.15625 C 1.6875 -8.457031 1.660156 -8.675781 1.609375 -8.8125 C 1.554688 -8.957031 1.453125 -9.054688 1.296875 -9.109375 C 1.148438 -9.160156 0.921875 -9.1875 0.609375 -9.1875 C 0.578125 -9.1875 0.5625 -9.21875 0.5625 -9.28125 C 0.5625 -9.34375 0.578125 -9.375 0.609375 -9.375 L 6.96875 -9.375 C 7.070312 -9.375 7.125 -9.328125 7.125 -9.234375 L 7.15625 -7.25 C 7.15625 -7.226562 7.125 -7.210938 7.0625 -7.203125 C 7.007812 -7.191406 6.976562 -7.203125 6.96875 -7.234375 C 6.8125 -7.804688 6.539062 -8.234375 6.15625 -8.515625 C 5.78125 -8.796875 5.285156 -8.9375 4.671875 -8.9375 L 4.21875 -8.9375 C 3.914062 -8.9375 3.691406 -8.867188 3.546875 -8.734375 C 3.410156 -8.609375 3.34375 -8.410156 3.34375 -8.140625 L 3.34375 -5.078125 L 4.59375 -5.078125 C 5.164062 -5.078125 5.609375 -5.175781 5.921875 -5.375 C 6.234375 -5.582031 6.390625 -5.863281 6.390625 -6.21875 C 6.390625 -6.25 6.414062 -6.265625 6.46875 -6.265625 C 6.53125 -6.265625 6.5625 -6.25 6.5625 -6.21875 L 6.546875 -4.875 L 6.5625 -4.15625 C 6.570312 -3.8125 6.578125 -3.539062 6.578125 -3.34375 C 6.578125 -3.320312 6.546875 -3.3125 6.484375 -3.3125 C 6.429688 -3.3125 6.40625 -3.320312 6.40625 -3.34375 C 6.40625 -3.75 6.242188 -4.070312 5.921875 -4.3125 C 5.609375 -4.550781 5.160156 -4.671875 4.578125 -4.671875 L 3.34375 -4.671875 L 3.34375 -1.28125 C 3.34375 -0.988281 3.394531 -0.769531 3.5 -0.625 C 3.613281 -0.488281 3.789062 -0.421875 4.03125 -0.421875 L 4.53125 -0.421875 C 5.3125 -0.421875 5.9375 -0.578125 6.40625 -0.890625 C 6.875 -1.210938 7.21875 -1.710938 7.4375 -2.390625 Z M 7.4375 -2.390625 "/></g></g></g><g fill="#545454" fill-opacity="1"><g transform="translate(144.713898, 191.99776)"><g/></g></g><g fill="#545454" fill-opacity="1"><g transform="translate(152.618881, 191.99776)"><g><path d="M 3.1875 -1.28125 C 3.1875 -1.019531 3.207031 -0.832031 3.25 -0.71875 C 3.289062 -0.601562 3.367188 -0.523438 3.484375 -0.484375 C 3.597656 -0.441406 3.785156 -0.421875 4.046875 -0.421875 L 4.5625 -0.421875 C 5.34375 -0.421875 6.015625 -0.628906 6.578125 -1.046875 C 7.148438 -1.460938 7.53125 -2.023438 7.71875 -2.734375 C 7.71875 -2.753906 7.738281 -2.765625 7.78125 -2.765625 C 7.800781 -2.765625 7.820312 -2.753906 7.84375 -2.734375 C 7.875 -2.722656 7.890625 -2.710938 7.890625 -2.703125 C 7.796875 -1.710938 7.75 -0.882812 7.75 -0.21875 C 7.75 -0.144531 7.734375 -0.0859375 7.703125 -0.046875 C 7.671875 -0.015625 7.613281 0 7.53125 0 L 0.453125 0 C 0.429688 0 0.421875 -0.03125 0.421875 -0.09375 C 0.421875 -0.15625 0.429688 -0.1875 0.453125 -0.1875 C 0.773438 -0.1875 1.003906 -0.207031 1.140625 -0.25 C 1.285156 -0.300781 1.382812 -0.398438 1.4375 -0.546875 C 1.5 -0.691406 1.53125 -0.914062 1.53125 -1.21875 L 1.53125 -8.15625 C 1.53125 -8.457031 1.5 -8.675781 1.4375 -8.8125 C 1.382812 -8.957031 1.285156 -9.054688 1.140625 -9.109375 C 0.992188 -9.160156 0.765625 -9.1875 0.453125 -9.1875 C 0.429688 -9.1875 0.421875 -9.21875 0.421875 -9.28125 C 0.421875 -9.34375 0.429688 -9.375 0.453125 -9.375 L 1.21875 -9.359375 C 1.675781 -9.335938 2.054688 -9.328125 2.359375 -9.328125 C 2.660156 -9.328125 3.039062 -9.335938 3.5 -9.359375 L 4.265625 -9.375 C 4.296875 -9.375 4.3125 -9.34375 4.3125 -9.28125 C 4.3125 -9.21875 4.296875 -9.1875 4.265625 -9.1875 C 3.953125 -9.1875 3.71875 -9.160156 3.5625 -9.109375 C 3.414062 -9.054688 3.316406 -8.957031 3.265625 -8.8125 C 3.210938 -8.664062 3.1875 -8.441406 3.1875 -8.140625 Z M 3.1875 -1.28125 "/></g></g></g><g fill="#545454" fill-opacity="1"><g transform="translate(165.188865, 191.99776)"><g><path d="M 10.75 -0.1875 C 10.800781 -0.1875 10.828125 -0.15625 10.828125 -0.09375 C 10.828125 -0.03125 10.800781 0 10.75 0 C 10.550781 0 10.242188 -0.0078125 9.828125 -0.03125 C 9.390625 -0.0507812 9.070312 -0.0625 8.875 -0.0625 C 8.625 -0.0625 8.320312 -0.0507812 7.96875 -0.03125 C 7.625 -0.0078125 7.351562 0 7.15625 0 C 7.113281 0 7.09375 -0.03125 7.09375 -0.09375 C 7.09375 -0.15625 7.113281 -0.1875 7.15625 -0.1875 C 7.414062 -0.1875 7.601562 -0.210938 7.71875 -0.265625 C 7.832031 -0.316406 7.890625 -0.414062 7.890625 -0.5625 C 7.890625 -0.726562 7.789062 -1.007812 7.59375 -1.40625 L 6.5625 -3.4375 L 2.875 -3.4375 L 2.296875 -2.125 C 2.160156 -1.832031 2.09375 -1.5625 2.09375 -1.3125 C 2.09375 -0.957031 2.21875 -0.679688 2.46875 -0.484375 C 2.726562 -0.285156 3.078125 -0.1875 3.515625 -0.1875 C 3.554688 -0.1875 3.578125 -0.15625 3.578125 -0.09375 C 3.578125 -0.03125 3.554688 0 3.515625 0 C 3.328125 0 3.066406 -0.0078125 2.734375 -0.03125 C 2.347656 -0.0507812 2.015625 -0.0625 1.734375 -0.0625 C 1.460938 -0.0625 1.140625 -0.0507812 0.765625 -0.03125 C 0.421875 -0.0078125 0.144531 0 -0.0625 0 C -0.101562 0 -0.125 -0.03125 -0.125 -0.09375 C -0.125 -0.15625 -0.101562 -0.1875 -0.0625 -0.1875 C 0.21875 -0.1875 0.453125 -0.242188 0.640625 -0.359375 C 0.835938 -0.472656 1.03125 -0.675781 1.21875 -0.96875 C 1.40625 -1.257812 1.628906 -1.695312 1.890625 -2.28125 L 5.140625 -9.4375 C 5.160156 -9.46875 5.207031 -9.484375 5.28125 -9.484375 C 5.363281 -9.484375 5.410156 -9.46875 5.421875 -9.4375 L 9.171875 -2.0625 C 9.515625 -1.34375 9.800781 -0.847656 10.03125 -0.578125 C 10.257812 -0.316406 10.5 -0.1875 10.75 -0.1875 Z M 3.078125 -3.859375 L 6.34375 -3.859375 L 4.625 -7.28125 Z M 3.078125 -3.859375 "/></g></g></g><g fill="#545454" fill-opacity="1"><g transform="translate(179.528849, 191.99776)"><g><path d="M 9.375 -9.375 C 9.394531 -9.375 9.40625 -9.34375 9.40625 -9.28125 C 9.40625 -9.21875 9.394531 -9.1875 9.375 -9.1875 C 9.0625 -9.1875 8.679688 -8.992188 8.234375 -8.609375 C 7.785156 -8.234375 7.382812 -7.753906 7.03125 -7.171875 L 5.46875 -4.5625 L 5.46875 -1.21875 C 5.46875 -0.90625 5.492188 -0.675781 5.546875 -0.53125 C 5.597656 -0.394531 5.695312 -0.300781 5.84375 -0.25 C 5.988281 -0.207031 6.222656 -0.1875 6.546875 -0.1875 C 6.566406 -0.1875 6.578125 -0.15625 6.578125 -0.09375 C 6.578125 -0.03125 6.566406 0 6.546875 0 C 6.210938 0 5.953125 -0.00390625 5.765625 -0.015625 L 4.640625 -0.03125 L 3.53125 -0.015625 C 3.320312 -0.00390625 3.050781 0 2.71875 0 C 2.695312 0 2.6875 -0.03125 2.6875 -0.09375 C 2.6875 -0.15625 2.695312 -0.1875 2.71875 -0.1875 C 3.03125 -0.1875 3.257812 -0.207031 3.40625 -0.25 C 3.5625 -0.300781 3.664062 -0.398438 3.71875 -0.546875 C 3.78125 -0.691406 3.8125 -0.914062 3.8125 -1.21875 L 3.8125 -4.25 L 1.625 -7.65625 C 1.25 -8.226562 0.9375 -8.625 0.6875 -8.84375 C 0.445312 -9.070312 0.242188 -9.1875 0.078125 -9.1875 C 0.046875 -9.1875 0.03125 -9.21875 0.03125 -9.28125 C 0.03125 -9.34375 0.046875 -9.375 0.078125 -9.375 L 0.546875 -9.359375 C 0.765625 -9.335938 0.914062 -9.328125 1 -9.328125 C 1.351562 -9.328125 1.859375 -9.335938 2.515625 -9.359375 L 3.515625 -9.375 C 3.535156 -9.375 3.546875 -9.34375 3.546875 -9.28125 C 3.546875 -9.21875 3.535156 -9.1875 3.515625 -9.1875 C 3.335938 -9.1875 3.203125 -9.144531 3.109375 -9.0625 C 3.015625 -8.988281 2.96875 -8.890625 2.96875 -8.765625 C 2.96875 -8.597656 3.039062 -8.40625 3.1875 -8.1875 L 5.234375 -4.953125 L 6.609375 -7.3125 C 6.878906 -7.757812 7.015625 -8.140625 7.015625 -8.453125 C 7.015625 -8.691406 6.941406 -8.875 6.796875 -9 C 6.648438 -9.125 6.445312 -9.1875 6.1875 -9.1875 C 6.15625 -9.1875 6.140625 -9.21875 6.140625 -9.28125 C 6.140625 -9.34375 6.15625 -9.375 6.1875 -9.375 L 6.96875 -9.359375 C 7.4375 -9.335938 7.847656 -9.328125 8.203125 -9.328125 C 8.367188 -9.328125 8.570312 -9.335938 8.8125 -9.359375 Z M 9.375 -9.375 "/></g></g></g><g fill="#545454" fill-opacity="1"><g transform="translate(193.208829, 191.99776)"><g><path d="M 7.4375 -2.390625 C 7.4375 -2.410156 7.457031 -2.421875 7.5 -2.421875 C 7.53125 -2.421875 7.554688 -2.410156 7.578125 -2.390625 C 7.609375 -2.378906 7.625 -2.367188 7.625 -2.359375 C 7.519531 -1.578125 7.46875 -0.863281 7.46875 -0.21875 C 7.46875 -0.144531 7.453125 -0.0859375 7.421875 -0.046875 C 7.390625 -0.015625 7.332031 0 7.25 0 L 0.609375 0 C 0.578125 0 0.5625 -0.03125 0.5625 -0.09375 C 0.5625 -0.15625 0.578125 -0.1875 0.609375 -0.1875 C 0.929688 -0.1875 1.164062 -0.207031 1.3125 -0.25 C 1.457031 -0.300781 1.554688 -0.398438 1.609375 -0.546875 C 1.660156 -0.691406 1.6875 -0.914062 1.6875 -1.21875 L 1.6875 -8.15625 C 1.6875 -8.457031 1.660156 -8.675781 1.609375 -8.8125 C 1.554688 -8.957031 1.453125 -9.054688 1.296875 -9.109375 C 1.148438 -9.160156 0.921875 -9.1875 0.609375 -9.1875 C 0.578125 -9.1875 0.5625 -9.21875 0.5625 -9.28125 C 0.5625 -9.34375 0.578125 -9.375 0.609375 -9.375 L 6.96875 -9.375 C 7.070312 -9.375 7.125 -9.328125 7.125 -9.234375 L 7.15625 -7.25 C 7.15625 -7.226562 7.125 -7.210938 7.0625 -7.203125 C 7.007812 -7.191406 6.976562 -7.203125 6.96875 -7.234375 C 6.8125 -7.804688 6.539062 -8.234375 6.15625 -8.515625 C 5.78125 -8.796875 5.285156 -8.9375 4.671875 -8.9375 L 4.21875 -8.9375 C 3.914062 -8.9375 3.691406 -8.867188 3.546875 -8.734375 C 3.410156 -8.609375 3.34375 -8.410156 3.34375 -8.140625 L 3.34375 -5.078125 L 4.59375 -5.078125 C 5.164062 -5.078125 5.609375 -5.175781 5.921875 -5.375 C 6.234375 -5.582031 6.390625 -5.863281 6.390625 -6.21875 C 6.390625 -6.25 6.414062 -6.265625 6.46875 -6.265625 C 6.53125 -6.265625 6.5625 -6.25 6.5625 -6.21875 L 6.546875 -4.875 L 6.5625 -4.15625 C 6.570312 -3.8125 6.578125 -3.539062 6.578125 -3.34375 C 6.578125 -3.320312 6.546875 -3.3125 6.484375 -3.3125 C 6.429688 -3.3125 6.40625 -3.320312 6.40625 -3.34375 C 6.40625 -3.75 6.242188 -4.070312 5.921875 -4.3125 C 5.609375 -4.550781 5.160156 -4.671875 4.578125 -4.671875 L 3.34375 -4.671875 L 3.34375 -1.28125 C 3.34375 -0.988281 3.394531 -0.769531 3.5 -0.625 C 3.613281 -0.488281 3.789062 -0.421875 4.03125 -0.421875 L 4.53125 -0.421875 C 5.3125 -0.421875 5.9375 -0.578125 6.40625 -0.890625 C 6.875 -1.210938 7.21875 -1.710938 7.4375 -2.390625 Z M 7.4375 -2.390625 "/></g></g></g><g fill="#545454" fill-opacity="1"><g transform="translate(205.883813, 191.99776)"><g><path d="M 10.625 -0.1875 C 10.644531 -0.1875 10.65625 -0.15625 10.65625 -0.09375 C 10.65625 -0.03125 10.644531 0 10.625 0 L 7.953125 0 C 7.734375 0 7.320312 -0.394531 6.71875 -1.1875 C 6.113281 -1.988281 5.390625 -3.101562 4.546875 -4.53125 C 4.460938 -4.519531 4.347656 -4.515625 4.203125 -4.515625 C 3.804688 -4.515625 3.53125 -4.519531 3.375 -4.53125 L 3.375 -1.21875 C 3.375 -0.90625 3.398438 -0.675781 3.453125 -0.53125 C 3.503906 -0.394531 3.597656 -0.300781 3.734375 -0.25 C 3.878906 -0.207031 4.113281 -0.1875 4.4375 -0.1875 C 4.457031 -0.1875 4.46875 -0.15625 4.46875 -0.09375 C 4.46875 -0.03125 4.457031 0 4.4375 0 C 4.101562 0 3.84375 -0.00390625 3.65625 -0.015625 L 2.515625 -0.03125 L 1.421875 -0.015625 C 1.222656 -0.00390625 0.953125 0 0.609375 0 C 0.578125 0 0.5625 -0.03125 0.5625 -0.09375 C 0.5625 -0.15625 0.578125 -0.1875 0.609375 -0.1875 C 0.929688 -0.1875 1.164062 -0.207031 1.3125 -0.25 C 1.457031 -0.300781 1.554688 -0.398438 1.609375 -0.546875 C 1.660156 -0.691406 1.6875 -0.914062 1.6875 -1.21875 L 1.6875 -8.15625 C 1.6875 -8.457031 1.660156 -8.675781 1.609375 -8.8125 C 1.566406 -8.957031 1.46875 -9.054688 1.3125 -9.109375 C 1.164062 -9.160156 0.9375 -9.1875 0.625 -9.1875 C 0.601562 -9.1875 0.59375 -9.21875 0.59375 -9.28125 C 0.59375 -9.34375 0.601562 -9.375 0.625 -9.375 L 1.421875 -9.359375 C 1.878906 -9.335938 2.242188 -9.328125 2.515625 -9.328125 C 2.859375 -9.328125 3.210938 -9.34375 3.578125 -9.375 C 3.710938 -9.382812 3.875 -9.394531 4.0625 -9.40625 C 4.257812 -9.414062 4.476562 -9.421875 4.71875 -9.421875 C 5.632812 -9.421875 6.34375 -9.253906 6.84375 -8.921875 C 7.34375 -8.585938 7.59375 -8.117188 7.59375 -7.515625 C 7.59375 -6.960938 7.441406 -6.460938 7.140625 -6.015625 C 6.835938 -5.578125 6.4375 -5.222656 5.9375 -4.953125 C 6.738281 -3.753906 7.410156 -2.8125 7.953125 -2.125 C 8.492188 -1.445312 8.972656 -0.953125 9.390625 -0.640625 C 9.804688 -0.335938 10.21875 -0.1875 10.625 -0.1875 Z M 3.375 -4.953125 C 3.613281 -4.910156 3.90625 -4.890625 4.25 -4.890625 C 4.820312 -4.890625 5.234375 -5.050781 5.484375 -5.375 C 5.742188 -5.695312 5.875 -6.21875 5.875 -6.9375 C 5.875 -7.757812 5.753906 -8.328125 5.515625 -8.640625 C 5.273438 -8.953125 4.929688 -9.109375 4.484375 -9.109375 C 4.085938 -9.109375 3.800781 -9.03125 3.625 -8.875 C 3.457031 -8.726562 3.375 -8.476562 3.375 -8.125 Z M 3.375 -4.953125 "/></g></g></g><g fill="#545454" fill-opacity="1"><g transform="translate(220.748794, 191.99776)"><g/></g></g><g fill="#545454" fill-opacity="1"><g transform="translate(228.653777, 191.99776)"><g><path d="M 6.40625 -9.546875 C 6.875 -9.546875 7.347656 -9.503906 7.828125 -9.421875 C 8.316406 -9.347656 8.707031 -9.253906 9 -9.140625 C 9.09375 -9.109375 9.148438 -9.066406 9.171875 -9.015625 C 9.191406 -8.972656 9.207031 -8.898438 9.21875 -8.796875 L 9.421875 -6.703125 C 9.421875 -6.671875 9.394531 -6.648438 9.34375 -6.640625 C 9.289062 -6.628906 9.253906 -6.644531 9.234375 -6.6875 C 8.953125 -7.507812 8.550781 -8.132812 8.03125 -8.5625 C 7.519531 -9 6.898438 -9.21875 6.171875 -9.21875 C 5.484375 -9.21875 4.875 -9.035156 4.34375 -8.671875 C 3.8125 -8.304688 3.390625 -7.785156 3.078125 -7.109375 C 2.773438 -6.429688 2.625 -5.632812 2.625 -4.71875 C 2.625 -3.800781 2.78125 -2.992188 3.09375 -2.296875 C 3.40625 -1.609375 3.835938 -1.078125 4.390625 -0.703125 C 4.953125 -0.328125 5.59375 -0.140625 6.3125 -0.140625 C 7 -0.140625 7.578125 -0.328125 8.046875 -0.703125 C 8.523438 -1.078125 8.972656 -1.691406 9.390625 -2.546875 C 9.398438 -2.578125 9.429688 -2.585938 9.484375 -2.578125 C 9.535156 -2.566406 9.5625 -2.546875 9.5625 -2.515625 L 9.328125 -0.65625 C 9.304688 -0.539062 9.285156 -0.460938 9.265625 -0.421875 C 9.242188 -0.390625 9.191406 -0.351562 9.109375 -0.3125 C 8.179688 0.0195312 7.25 0.1875 6.3125 0.1875 C 5.238281 0.1875 4.28125 -0.015625 3.4375 -0.421875 C 2.59375 -0.828125 1.929688 -1.394531 1.453125 -2.125 C 0.972656 -2.851562 0.734375 -3.6875 0.734375 -4.625 C 0.734375 -5.570312 0.976562 -6.414062 1.46875 -7.15625 C 1.96875 -7.90625 2.648438 -8.488281 3.515625 -8.90625 C 4.378906 -9.332031 5.34375 -9.546875 6.40625 -9.546875 Z M 6.40625 -9.546875 "/></g></g></g><g fill="#545454" fill-opacity="1"><g transform="translate(243.26375, 191.99776)"><g><path d="M 5.484375 0.1875 C 4.554688 0.1875 3.726562 -0.03125 3 -0.46875 C 2.28125 -0.90625 1.722656 -1.492188 1.328125 -2.234375 C 0.929688 -2.984375 0.734375 -3.800781 0.734375 -4.6875 C 0.734375 -5.707031 0.992188 -6.585938 1.515625 -7.328125 C 2.035156 -8.066406 2.703125 -8.617188 3.515625 -8.984375 C 4.328125 -9.359375 5.160156 -9.546875 6.015625 -9.546875 C 6.960938 -9.546875 7.796875 -9.320312 8.515625 -8.875 C 9.234375 -8.425781 9.785156 -7.835938 10.171875 -7.109375 C 10.554688 -6.378906 10.75 -5.601562 10.75 -4.78125 C 10.75 -3.875 10.507812 -3.039062 10.03125 -2.28125 C 9.550781 -1.519531 8.910156 -0.914062 8.109375 -0.46875 C 7.304688 -0.03125 6.429688 0.1875 5.484375 0.1875 Z M 5.984375 -0.1875 C 6.546875 -0.1875 7.046875 -0.347656 7.484375 -0.671875 C 7.929688 -1.003906 8.28125 -1.484375 8.53125 -2.109375 C 8.78125 -2.734375 8.90625 -3.476562 8.90625 -4.34375 C 8.90625 -5.269531 8.765625 -6.09375 8.484375 -6.8125 C 8.203125 -7.539062 7.796875 -8.109375 7.265625 -8.515625 C 6.742188 -8.929688 6.128906 -9.140625 5.421875 -9.140625 C 4.503906 -9.140625 3.800781 -8.796875 3.3125 -8.109375 C 2.820312 -7.421875 2.578125 -6.460938 2.578125 -5.234375 C 2.578125 -4.265625 2.722656 -3.394531 3.015625 -2.625 C 3.316406 -1.863281 3.722656 -1.265625 4.234375 -0.828125 C 4.753906 -0.398438 5.335938 -0.1875 5.984375 -0.1875 Z M 5.984375 -0.1875 "/></g></g></g><g fill="#545454" fill-opacity="1"><g transform="translate(258.623734, 191.99776)"><g><path d="M 1.578125 0.171875 C 1.296875 0.171875 1.070312 0.0859375 0.90625 -0.078125 C 0.738281 -0.242188 0.65625 -0.46875 0.65625 -0.75 C 0.65625 -1.007812 0.738281 -1.21875 0.90625 -1.375 C 1.070312 -1.539062 1.296875 -1.625 1.578125 -1.625 C 1.859375 -1.625 2.070312 -1.546875 2.21875 -1.390625 C 2.375 -1.234375 2.453125 -1.019531 2.453125 -0.75 C 2.453125 -0.457031 2.375 -0.226562 2.21875 -0.0625 C 2.070312 0.09375 1.859375 0.171875 1.578125 0.171875 Z M 1.578125 0.171875 "/></g></g></g></svg>