<svg xmlns="http://www.w3.org/2000/svg" xmlns:xlink="http://www.w3.org/1999/xlink" width="420" zoomAndPan="magnify" viewBox="0 0 315 72" height="96" preserveAspectRatio="xMidYMid meet" version="1.0"><defs><g/></defs><g fill="#5f6655" fill-opacity="1"><g transform="translate(0, 44.251114)"><g><path d="M 9.359375 0 L 9.359375 -19.25 L 0.28125 -19.25 L 0.28125 -21.34375 L 20.953125 -21.34375 L 20.953125 -19.25 L 11.859375 -19.25 L 11.859375 0 Z M 9.359375 0 "/></g></g></g><g fill="#5f6655" fill-opacity="1"><g transform="translate(25.767036, 44.251114)"><g><path d="M 2.8125 0 L 2.8125 -21.34375 L 5.3125 -21.34375 L 5.3125 -11.75 L 20.0625 -11.75 L 20.0625 -21.34375 L 22.5625 -21.34375 L 22.5625 0 L 20.0625 0 L 20.0625 -9.640625 L 5.3125 -9.640625 L 5.3125 0 Z M 2.8125 0 "/></g></g></g><g fill="#5f6655" fill-opacity="1"><g transform="translate(55.681021, 44.251114)"><g><path d="M 2.84375 0 L 2.84375 -21.34375 L 19.375 -21.34375 L 19.375 -19.25 L 5.375 -19.25 L 5.375 -11.71875 L 18.8125 -11.71875 L 18.8125 -9.609375 L 5.375 -9.609375 L 5.375 -2.140625 L 19.375 -2.140625 L 19.375 0 Z M 2.84375 0 "/></g></g></g><g fill="#5f6655" fill-opacity="1"><g transform="translate(81.38707, 44.251114)"><g/></g></g><g fill="#5f6655" fill-opacity="1"><g transform="translate(95.750011, 44.251114)"><g><path d="M 2.84375 0 L 2.84375 -21.34375 L 5.375 -21.34375 L 5.375 -2.109375 L 19.34375 -2.109375 L 19.34375 0 Z M 2.84375 0 "/></g></g></g><g fill="#5f6655" fill-opacity="1"><g transform="translate(121.181746, 44.251114)"><g><path d="M 0.421875 0 L 11.375 -21.5625 L 13.9375 -21.5625 L 24.859375 0 L 22.078125 0 L 19.25 -5.609375 L 6.03125 -5.609375 L 3.203125 0 Z M 7.109375 -7.71875 L 18.171875 -7.71875 L 12.65625 -18.640625 Z M 7.109375 -7.71875 "/></g></g></g><g fill="#5f6655" fill-opacity="1"><g transform="translate(147.771783, 44.251114)"><g><path d="M 10.578125 0 L 10.578125 -8.453125 L 0.453125 -21.28125 L 0.453125 -21.34375 L 3.453125 -21.34375 L 11.859375 -10.546875 L 20.25 -21.34375 L 23.234375 -21.34375 L 23.234375 -21.28125 L 13.109375 -8.453125 L 13.109375 0 Z M 10.578125 0 "/></g></g></g><g fill="#5f6655" fill-opacity="1"><g transform="translate(175.978206, 44.251114)"><g><path d="M 2.84375 0 L 2.84375 -21.34375 L 19.375 -21.34375 L 19.375 -19.25 L 5.375 -19.25 L 5.375 -11.71875 L 18.8125 -11.71875 L 18.8125 -9.609375 L 5.375 -9.609375 L 5.375 -2.140625 L 19.375 -2.140625 L 19.375 0 Z M 2.84375 0 "/></g></g></g><g fill="#5f6655" fill-opacity="1"><g transform="translate(201.684256, 44.251114)"><g><path d="M 2.84375 0 L 2.84375 -21.34375 L 13.8125 -21.34375 C 14.769531 -21.34375 15.796875 -21.226562 16.890625 -21 C 17.992188 -20.78125 18.972656 -20.328125 19.828125 -19.640625 C 20.535156 -19.066406 21.070312 -18.347656 21.4375 -17.484375 C 21.800781 -16.628906 21.984375 -15.742188 21.984375 -14.828125 C 21.984375 -13.890625 21.789062 -12.976562 21.40625 -12.09375 C 21.019531 -11.207031 20.441406 -10.46875 19.671875 -9.875 C 19.023438 -9.375 18.25 -8.984375 17.34375 -8.703125 C 16.4375 -8.429688 15.394531 -8.285156 14.21875 -8.265625 L 14.21875 -8.234375 L 13.65625 -8.234375 L 22.015625 -0.15625 L 22.015625 0 L 18.84375 0 L 10.34375 -8.234375 L 5.375 -8.234375 L 5.375 0 Z M 5.375 -10.34375 L 14.1875 -10.34375 C 15.9375 -10.40625 17.242188 -10.8125 18.109375 -11.5625 C 18.554688 -11.945312 18.890625 -12.429688 19.109375 -13.015625 C 19.335938 -13.609375 19.453125 -14.222656 19.453125 -14.859375 C 19.453125 -15.460938 19.347656 -16.046875 19.140625 -16.609375 C 18.941406 -17.179688 18.640625 -17.644531 18.234375 -18 C 17.609375 -18.539062 16.875 -18.882812 16.03125 -19.03125 C 15.1875 -19.175781 14.445312 -19.25 13.8125 -19.25 L 5.375 -19.25 Z M 5.375 -10.34375 "/></g></g></g><g fill="#5f6655" fill-opacity="1"><g transform="translate(229.433293, 44.251114)"><g/></g></g><g fill="#5f6655" fill-opacity="1"><g transform="translate(243.796223, 44.251114)"><g><path d="M 12.875 0.453125 C 11.226562 0.453125 9.71875 0.175781 8.34375 -0.375 C 6.96875 -0.9375 5.773438 -1.71875 4.765625 -2.71875 C 3.765625 -3.726562 2.988281 -4.914062 2.4375 -6.28125 C 1.882812 -7.644531 1.609375 -9.128906 1.609375 -10.734375 C 1.609375 -12.335938 1.882812 -13.816406 2.4375 -15.171875 C 2.988281 -16.523438 3.765625 -17.695312 4.765625 -18.6875 C 5.773438 -19.6875 6.96875 -20.460938 8.34375 -21.015625 C 9.71875 -21.566406 11.226562 -21.84375 12.875 -21.84375 C 14.238281 -21.84375 15.578125 -21.632812 16.890625 -21.21875 C 18.210938 -20.800781 19.390625 -20.148438 20.421875 -19.265625 C 21.460938 -18.378906 22.226562 -17.242188 22.71875 -15.859375 L 20.5625 -15.375 C 20.09375 -16.445312 19.453125 -17.296875 18.640625 -17.921875 C 17.828125 -18.554688 16.921875 -19.007812 15.921875 -19.28125 C 14.921875 -19.5625 13.90625 -19.703125 12.875 -19.703125 C 11.164062 -19.703125 9.660156 -19.328125 8.359375 -18.578125 C 7.054688 -17.828125 6.03125 -16.773438 5.28125 -15.421875 C 4.539062 -14.066406 4.171875 -12.503906 4.171875 -10.734375 C 4.171875 -8.960938 4.539062 -7.398438 5.28125 -6.046875 C 6.03125 -4.703125 7.054688 -3.640625 8.359375 -2.859375 C 9.660156 -2.085938 11.164062 -1.703125 12.875 -1.703125 C 13.84375 -1.703125 14.835938 -1.851562 15.859375 -2.15625 C 16.878906 -2.46875 17.804688 -2.945312 18.640625 -3.59375 C 19.472656 -4.25 20.101562 -5.082031 20.53125 -6.09375 L 22.71875 -5.609375 C 22.15625 -4.203125 21.359375 -3.050781 20.328125 -2.15625 C 19.296875 -1.269531 18.132812 -0.613281 16.84375 -0.1875 C 15.5625 0.238281 14.238281 0.453125 12.875 0.453125 Z M 12.875 0.453125 "/></g></g></g><g fill="#5f6655" fill-opacity="1"><g transform="translate(272.033145, 44.251114)"><g><path d="M 12.90625 0.328125 C 11.257812 0.328125 9.75 0.0546875 8.375 -0.484375 C 7 -1.035156 5.804688 -1.800781 4.796875 -2.78125 C 3.796875 -3.769531 3.019531 -4.945312 2.46875 -6.3125 C 1.914062 -7.675781 1.640625 -9.160156 1.640625 -10.765625 C 1.640625 -12.367188 1.914062 -13.847656 2.46875 -15.203125 C 3.019531 -16.554688 3.796875 -17.722656 4.796875 -18.703125 C 5.804688 -19.691406 7 -20.460938 8.375 -21.015625 C 9.75 -21.566406 11.257812 -21.84375 12.90625 -21.84375 C 14.550781 -21.84375 16.054688 -21.566406 17.421875 -21.015625 C 18.796875 -20.460938 19.988281 -19.691406 21 -18.703125 C 22.007812 -17.722656 22.785156 -16.554688 23.328125 -15.203125 C 23.878906 -13.847656 24.15625 -12.367188 24.15625 -10.765625 C 24.15625 -9.160156 23.878906 -7.675781 23.328125 -6.3125 C 22.785156 -4.945312 22.007812 -3.769531 21 -2.78125 C 19.988281 -1.800781 18.796875 -1.035156 17.421875 -0.484375 C 16.054688 0.0546875 14.550781 0.328125 12.90625 0.328125 Z M 12.90625 -1.796875 C 14.613281 -1.796875 16.117188 -2.175781 17.421875 -2.9375 C 18.734375 -3.707031 19.757812 -4.765625 20.5 -6.109375 C 21.25 -7.460938 21.625 -9.015625 21.625 -10.765625 C 21.625 -12.535156 21.25 -14.09375 20.5 -15.4375 C 19.757812 -16.78125 18.734375 -17.828125 17.421875 -18.578125 C 16.117188 -19.328125 14.613281 -19.703125 12.90625 -19.703125 C 11.195312 -19.703125 9.6875 -19.328125 8.375 -18.578125 C 7.0625 -17.828125 6.03125 -16.78125 5.28125 -15.4375 C 4.539062 -14.09375 4.171875 -12.535156 4.171875 -10.765625 C 4.171875 -9.015625 4.539062 -7.460938 5.28125 -6.109375 C 6.03125 -4.765625 7.0625 -3.707031 8.375 -2.9375 C 9.6875 -2.175781 11.195312 -1.796875 12.90625 -1.796875 Z M 12.90625 -1.796875 "/></g></g></g><g fill="#5f6655" fill-opacity="1"><g transform="translate(302.404527, 44.251114)"><g><path d="M 2.46875 0 L 2.46875 -2.890625 L 4.84375 -2.890625 L 4.84375 0 Z M 2.46875 0 "/></g></g></g></svg>