<svg xmlns="http://www.w3.org/2000/svg" xmlns:xlink="http://www.w3.org/1999/xlink" width="420" zoomAndPan="magnify" viewBox="0 0 315 72" height="96" preserveAspectRatio="xMidYMid meet" version="1.0"><defs><g/></defs><g fill="#5f6655" fill-opacity="1"><g transform="translate(0, 44.251114)"><g><path d="M 8.015625 0 L 8.015625 -17.71875 L -0.28125 -17.71875 L -0.28125 -21.34375 L 20.5625 -21.34375 L 20.5625 -17.71875 L 12.296875 -17.71875 L 12.296875 0 Z M 8.015625 0 "/></g></g></g><g fill="#5f6655" fill-opacity="1"><g transform="translate(25.614577, 44.251114)"><g><path d="M 1.53125 0 L 1.53125 -21.34375 L 5.796875 -21.34375 L 5.796875 -12.5 L 17.296875 -12.5 L 17.296875 -21.34375 L 21.53125 -21.34375 L 21.53125 0 L 17.296875 0 L 17.296875 -8.84375 L 5.796875 -8.84375 L 5.796875 0 Z M 1.53125 0 "/></g></g></g><g fill="#5f6655" fill-opacity="1"><g transform="translate(53.973459, 44.251114)"><g><path d="M 1.5 0 L 1.5 -21.34375 L 18.578125 -21.34375 L 18.578125 -17.71875 L 5.578125 -17.71875 L 5.578125 -12.40625 L 18.0625 -12.40625 L 18.0625 -8.90625 L 5.578125 -8.90625 L 5.578125 -3.625 L 18.578125 -3.625 L 18.578125 0 Z M 1.5 0 "/></g></g></g><g fill="#5f6655" fill-opacity="1"><g transform="translate(78.490319, 44.251114)"><g/></g></g><g fill="#5f6655" fill-opacity="1"><g transform="translate(91.359142, 44.251114)"><g><path d="M 1.5 0 L 1.5 -21.34375 L 5.796875 -21.34375 L 5.796875 -3.65625 L 18.546875 -3.65625 L 18.546875 0 Z M 1.5 0 "/></g></g></g><g fill="#5f6655" fill-opacity="1"><g transform="translate(116.607921, 44.251114)"><g><path d="M -0.703125 0 L 10.1875 -21.46875 L 13.875 -21.46875 L 24.703125 0 L 20.03125 0 L 17.421875 -5.125 L 6.46875 -5.125 L 3.84375 0 Z M 8.234375 -8.65625 L 15.640625 -8.65625 L 13.515625 -13.265625 L 12.046875 -17.203125 L 10.46875 -13.203125 Z M 8.234375 -8.65625 "/></g></g></g><g fill="#5f6655" fill-opacity="1"><g transform="translate(142.649099, 44.251114)"><g><path d="M 9.125 0 L 9.125 -8.328125 L -0.796875 -21.34375 L 4.140625 -21.34375 L 11.25 -11.890625 L 18.390625 -21.34375 L 23.328125 -21.34375 L 13.390625 -8.328125 L 13.390625 0 Z M 9.125 0 "/></g></g></g><g fill="#5f6655" fill-opacity="1"><g transform="translate(170.672566, 44.251114)"><g><path d="M 1.5 0 L 1.5 -21.34375 L 18.578125 -21.34375 L 18.578125 -17.71875 L 5.578125 -17.71875 L 5.578125 -12.40625 L 18.0625 -12.40625 L 18.0625 -8.90625 L 5.578125 -8.90625 L 5.578125 -3.625 L 18.578125 -3.625 L 18.578125 0 Z M 1.5 0 "/></g></g></g><g fill="#5f6655" fill-opacity="1"><g transform="translate(195.189415, 44.251114)"><g><path d="M 1.53125 0 L 1.53125 -21.34375 L 12.5625 -21.34375 C 13.5 -21.34375 14.523438 -21.222656 15.640625 -20.984375 C 16.765625 -20.742188 17.765625 -20.273438 18.640625 -19.578125 C 19.390625 -18.972656 19.96875 -18.207031 20.375 -17.28125 C 20.78125 -16.351562 20.984375 -15.410156 20.984375 -14.453125 C 20.984375 -13.515625 20.765625 -12.570312 20.328125 -11.625 C 19.890625 -10.6875 19.273438 -9.890625 18.484375 -9.234375 C 17.441406 -8.421875 16.109375 -7.976562 14.484375 -7.90625 L 21.234375 -0.1875 L 21.234375 0 L 16.4375 0 L 9.703125 -7.78125 L 5.765625 -7.78125 L 5.765625 0 Z M 5.765625 -11.25 L 12.875 -11.25 C 14.113281 -11.25 15.066406 -11.507812 15.734375 -12.03125 C 16.410156 -12.550781 16.75 -13.367188 16.75 -14.484375 C 16.75 -15.703125 16.335938 -16.550781 15.515625 -17.03125 C 14.703125 -17.507812 13.71875 -17.75 12.5625 -17.75 L 5.765625 -17.75 Z M 5.765625 -11.25 "/></g></g></g><g fill="#5f6655" fill-opacity="1"><g transform="translate(221.779761, 44.251114)"><g/></g></g><g fill="#5f6655" fill-opacity="1"><g transform="translate(234.648595, 44.251114)"><g><path d="M 11.71875 0.515625 C 10.0625 0.515625 8.535156 0.238281 7.140625 -0.3125 C 5.753906 -0.875 4.550781 -1.65625 3.53125 -2.65625 C 2.519531 -3.664062 1.734375 -4.859375 1.171875 -6.234375 C 0.609375 -7.609375 0.328125 -9.109375 0.328125 -10.734375 C 0.328125 -12.359375 0.609375 -13.851562 1.171875 -15.21875 C 1.734375 -16.582031 2.519531 -17.757812 3.53125 -18.75 C 4.550781 -19.75 5.753906 -20.523438 7.140625 -21.078125 C 8.535156 -21.628906 10.0625 -21.90625 11.71875 -21.90625 C 13.09375 -21.90625 14.445312 -21.679688 15.78125 -21.234375 C 17.113281 -20.785156 18.304688 -20.066406 19.359375 -19.078125 C 20.421875 -18.085938 21.25 -16.769531 21.84375 -15.125 L 18.328125 -13.875 C 17.859375 -15 17.265625 -15.867188 16.546875 -16.484375 C 15.828125 -17.109375 15.050781 -17.546875 14.21875 -17.796875 C 13.382812 -18.046875 12.550781 -18.171875 11.71875 -18.171875 C 10.332031 -18.171875 9.109375 -17.851562 8.046875 -17.21875 C 6.992188 -16.59375 6.164062 -15.722656 5.5625 -14.609375 C 4.96875 -13.492188 4.671875 -12.203125 4.671875 -10.734375 C 4.671875 -9.296875 4.96875 -8 5.5625 -6.84375 C 6.164062 -5.695312 6.992188 -4.796875 8.046875 -4.140625 C 9.109375 -3.492188 10.332031 -3.171875 11.71875 -3.171875 C 12.550781 -3.171875 13.382812 -3.304688 14.21875 -3.578125 C 15.050781 -3.859375 15.828125 -4.328125 16.546875 -4.984375 C 17.265625 -5.648438 17.859375 -6.539062 18.328125 -7.65625 L 22.015625 -6.5 C 21.328125 -4.789062 20.441406 -3.421875 19.359375 -2.390625 C 18.285156 -1.367188 17.09375 -0.628906 15.78125 -0.171875 C 14.46875 0.285156 13.113281 0.515625 11.71875 0.515625 Z M 11.71875 0.515625 "/></g></g></g><g fill="#5f6655" fill-opacity="1"><g transform="translate(262.641621, 44.251114)"><g><path d="M 11.796875 0.3125 C 10.171875 0.3125 8.671875 0.0390625 7.296875 -0.5 C 5.929688 -1.039062 4.742188 -1.804688 3.734375 -2.796875 C 2.722656 -3.796875 1.9375 -4.972656 1.375 -6.328125 C 0.820312 -7.679688 0.546875 -9.160156 0.546875 -10.765625 C 0.546875 -12.367188 0.820312 -13.84375 1.375 -15.1875 C 1.9375 -16.53125 2.722656 -17.691406 3.734375 -18.671875 C 4.742188 -19.660156 5.929688 -20.425781 7.296875 -20.96875 C 8.671875 -21.507812 10.171875 -21.78125 11.796875 -21.78125 C 13.453125 -21.78125 14.960938 -21.507812 16.328125 -20.96875 C 17.703125 -20.425781 18.890625 -19.660156 19.890625 -18.671875 C 20.898438 -17.691406 21.679688 -16.53125 22.234375 -15.1875 C 22.785156 -13.84375 23.0625 -12.367188 23.0625 -10.765625 C 23.0625 -9.160156 22.785156 -7.679688 22.234375 -6.328125 C 21.679688 -4.972656 20.898438 -3.796875 19.890625 -2.796875 C 18.890625 -1.804688 17.703125 -1.039062 16.328125 -0.5 C 14.960938 0.0390625 13.453125 0.3125 11.796875 0.3125 Z M 11.796875 -3.328125 C 13.179688 -3.328125 14.398438 -3.648438 15.453125 -4.296875 C 16.515625 -4.953125 17.335938 -5.835938 17.921875 -6.953125 C 18.515625 -8.066406 18.8125 -9.335938 18.8125 -10.765625 C 18.8125 -12.191406 18.515625 -13.460938 17.921875 -14.578125 C 17.335938 -15.691406 16.515625 -16.566406 15.453125 -17.203125 C 14.398438 -17.847656 13.179688 -18.171875 11.796875 -18.171875 C 10.441406 -18.171875 9.234375 -17.847656 8.171875 -17.203125 C 7.117188 -16.566406 6.296875 -15.691406 5.703125 -14.578125 C 5.109375 -13.460938 4.8125 -12.191406 4.8125 -10.765625 C 4.8125 -9.335938 5.109375 -8.066406 5.703125 -6.953125 C 6.296875 -5.835938 7.117188 -4.953125 8.171875 -4.296875 C 9.234375 -3.648438 10.441406 -3.328125 11.796875 -3.328125 Z M 11.796875 -3.328125 "/></g></g></g><g fill="#5f6655" fill-opacity="1"><g transform="translate(291.671344, 44.251114)"><g><path d="M 0.96875 0 L 0.96875 -3.65625 L 4.609375 -3.65625 L 4.609375 0 Z M 0.96875 0 "/></g></g></g></svg>